Coordinates
version=1
nRows=8
nColumns=36
inDegrees=yes

Units are S.I. units (second, meters, Newtons, ...)
If the header above contains a line with 'inDegrees', this indicates whether rotational values are in degrees (yes) or radians (no).

endheader
time	pelvis_tilt	pelvis_list	pelvis_rotation	pelvis_tx	pelvis_ty	pelvis_tz	hip_flexion_r	hip_adduction_r	hip_rotation_r	knee_angle_r	knee_angle_r_beta	ankle_angle_r	subtalar_angle_r	mtp_angle_r	hip_flexion_l	hip_adduction_l	hip_rotation_l	knee_angle_l	knee_angle_l_beta	ankle_angle_l	subtalar_angle_l	mtp_angle_l	lumbar_extension	lumbar_bending	lumbar_rotation	arm_flex_r	arm_add_r	arm_rot_r	elbow_flex_r	pro_sup_r	arm_flex_l	arm_add_l	arm_rot_l	elbow_flex_l	pro_sup_l
      1.82000000	    -17.89477769	     -0.93228130	      0.03285733	     -0.33033390	      0.84884880	     -0.55540915	     62.70254138	      3.72171270	      1.32165805	     74.46905886	      1.29973027	     30.08456997	    -13.52518428	     -7.49974856	     63.07702603	     -2.91467916	     -0.06553965	     74.29031583	      1.29661061	     31.10731438	     -7.36970690	     -7.49974856	    -22.86026433	      0.26364184	     -1.26239055	     25.84170308	    -17.00952769	      4.99835474	     74.44883477	    112.84851032	      5.16893576	    -10.50935064	     -4.24832561	     54.49313231	     91.13036654
      1.83000000	    -17.29075149	     -0.95334973	      0.21562885	     -0.32636833	      0.84456372	     -0.55567978	     62.44318032	      3.70034492	      1.32524914	     75.74926404	      1.32207406	     30.87578382	    -13.56103611	     -7.49975159	     62.84061796	     -2.72171118	      0.13565605	     75.49912354	      1.31770829	     31.76713484	     -7.52765337	     -7.49975159	    -22.66763404	      0.43207086	     -1.17648873	     27.49866216	    -17.56812759	      5.91203464	     76.83848746	    113.07845185	      7.01152868	    -11.41730711	     -4.57934436	     57.40974953	     91.43069000
      1.84000000	    -16.60902936	     -0.86876897	      0.39554893	     -0.32196049	      0.84137008	     -0.55590407	     61.96977187	      3.66381833	      1.47092770	     76.87918771	      1.34179495	     31.59411415	    -13.59838136	     -7.49975507	     62.33978567	     -2.41802709	      0.29208555	     76.49370616	      1.33506703	     32.32112355	     -7.68875185	     -7.49975507	    -22.35934311	      0.42037041	     -1.24939039	     29.59682757	    -18.20341242	      7.09504999	     79.20180840	    113.29621982	      8.95843933	    -12.56280524	     -5.17365937	     60.89317322	     91.82513448
      1.85000000	    -15.95453407	     -0.72168560	      0.60345206	     -0.31735358	      0.83912330	     -0.55618712	     61.40220003	      3.58027301	      1.66726536	     77.83140298	      1.35841424	     32.19535900	    -13.72640784	     -7.49975812	     61.72639515	     -2.03613147	      0.42974020	     77.25957957	      1.34843404	     32.76393184	     -7.89990343	     -7.49975812	    -21.79785135	      0.27413748	     -1.34498146	     32.12680192	    -19.05318305	      8.33117372	     81.57237236	    113.45248904	     11.17714375	    -13.93392207	     -5.70521778	     64.59128499	     92.29322743
      1.86000000	    -15.30825033	     -0.60695096	      0.84595206	     -0.31275441	      0.83790154	     -0.55654946	     60.71090935	      3.48391248	      1.80134979	     78.54264305	      1.37082772	     32.70481390	    -13.80066228	     -7.49976274	     61.01199999	     -1.69473812	      0.50141494	     77.81203649	      1.35807623	     33.14015388	     -8.03830177	     -7.49976274	    -21.12989519	      0.18578820	     -1.72144449	     35.38162462	    -19.95055213	      9.89265525	     83.82929123	    113.47580432	     13.44769044	    -15.59160522	     -6.37206046	     68.82064388	     92.94214284
      1.87000000	    -14.77146947	     -0.48410420	      1.13214424	     -0.30811929	      0.83760590	     -0.55682057	     60.01930888	      3.36094437	      1.89132709	     79.06442918	      1.37993461	     33.02965391	    -14.18600316	     -7.49976469	     60.29032089	     -1.30985118	      0.63156596	     78.15242195	      1.36401708	     33.42322686	     -8.18643872	     -7.49976469	    -20.16772383	      0.06705096	     -1.83163511	     38.78858746	    -21.30357506	     11.39140632	     86.35325373	    113.61896526	     16.47509552	    -17.47047562	     -6.26062716	     72.52545560	     93.47925443
      1.88000000	    -14.09115456	     -0.45402850	      1.30040173	     -0.30335888	      0.83918161	     -0.55692094	     58.91060769	      3.46999390	      2.07869961	     79.09096416	      1.38039773	     33.07558352	    -14.59007011	     -7.49977541	     59.21348224	     -1.15113754	      0.71453628	     78.15350282	      1.36403595	     33.66540167	     -8.19381126	     -7.49977541	    -19.40937738	      0.14670127	     -2.77118012	     43.82363906	    -22.07289752	     14.41475125	     88.00685995	    113.19081689	     18.85397229	    -19.91158919	     -7.24948551	     77.20233699	     94.53947587
      1.89000000	    -13.59266463	     -0.31331973	      1.48046512	     -0.29858315	      0.84200513	     -0.55707804	     57.88058560	      3.42367334	      2.31401601	     78.91959881	      1.37740684	     33.08889596	    -14.77267124	     -7.49977806	     58.14929686	     -0.93551297	      0.66905584	     77.81532845	      1.35813369	     33.65639120	     -8.24439963	     -7.49977806	    -18.39536492	      0.03546711	     -2.74334087	     48.29901549	    -23.91129911	     16.45716326	     90.75416027	    113.33158334	     22.78096444	    -22.30184590	     -6.59589710	     80.76008209	     95.11508378
